<?xml version="1.0" standalone="no"?>
<!DOCTYPE svg PUBLIC "-//W3C//DTD SVG 20010904//EN"
 "http://www.w3.org/TR/2001/REC-SVG-20010904/DTD/svg10.dtd">
<svg version="1.0" xmlns="http://www.w3.org/2000/svg"
 width="2400.000000pt" height="2400.000000pt" viewBox="0 0 2400.000000 2400.000000"
 preserveAspectRatio="xMidYMid meet">

<g transform="translate(0.000000,2400.000000) scale(0.100000,-0.100000)"
fill="#000000" stroke="none">
<path d="M4399 22019 c-704 -50 -1337 -383 -1797 -946 -137 -167 -317 -486
-397 -706 -75 -205 -129 -460 -145 -686 -14 -197 -14 -14972 1 -15152 49 -616
313 -1179 755 -1609 138 -134 217 -199 368 -300 335 -224 745 -370 1150 -409
76 -8 2407 -11 7640 -11 6636 0 7547 2 7661 15 159 18 257 37 395 76 417 115
801 340 1108 648 398 398 648 909 724 1476 11 82 13 1434 13 7710 0 7355 -1
7614 -19 7730 -88 575 -348 1079 -759 1471 -430 411 -971 649 -1577 694 -160
12 -14955 11 -15121 -1z m14848 -1360 c243 -33 488 -131 679 -272 103 -75 271
-250 341 -353 113 -167 196 -368 240 -584 16 -80 17 -511 20 -7230 2 -4635 0
-7193 -6 -7281 -6 -74 -17 -171 -26 -215 -104 -509 -489 -939 -984 -1098 -191
-62 -274 -71 -651 -71 l-335 0 -116 445 c-113 432 -699 2667 -900 3435 -107
406 -257 978 -443 1689 -64 242 -113 442 -110 445 2 3 45 13 95 23 328 67 641
234 893 478 227 220 386 473 479 765 63 196 81 321 81 560 1 231 -10 314 -64
507 -174 617 -666 1105 -1284 1273 -156 42 -253 56 -431 62 -404 12 -757 -89
-1090 -312 -266 -179 -470 -411 -614 -700 -82 -163 -119 -267 -155 -426 -73
-330 -56 -666 50 -988 35 -104 147 -344 181 -388 l18 -23 265 158 c281 168
958 571 975 580 6 3 -5 -11 -23 -32 -18 -21 -178 -205 -355 -409 -177 -204
-377 -434 -445 -511 l-122 -141 47 -42 c178 -159 442 -303 695 -379 96 -28
291 -64 352 -64 23 0 49 -6 58 -12 9 -8 61 -189 132 -463 65 -247 160 -612
212 -810 52 -198 107 -405 121 -459 23 -89 24 -100 10 -110 -9 -6 -105 -71
-214 -144 -238 -161 -453 -306 -963 -651 -636 -430 -1304 -882 -1495 -1011
-99 -67 -244 -165 -322 -218 -79 -53 -413 -279 -743 -502 -446 -302 -595 -407
-582 -412 9 -4 316 -60 682 -124 1166 -203 1318 -229 2224 -389 488 -86 893
-154 900 -152 9 3 77 345 71 355 -1 1 -398 72 -881 157 -1836 321 -2039 357
-2043 361 -6 6 -27 -9 454 316 127 86 331 224 455 308 124 83 385 260 580 391
195 132 510 346 700 474 190 129 428 290 530 358 102 69 312 211 467 316 156
105 286 191 290 191 5 0 21 -51 37 -112 16 -62 48 -185 71 -273 23 -88 107
-405 185 -705 78 -300 157 -601 175 -670 19 -69 86 -325 150 -570 64 -245 150
-571 190 -725 140 -530 185 -705 185 -715 0 -10 -11361 -15 -11371 -5 -3 2 -1
44 3 92 22 257 102 1165 123 1408 14 154 65 741 115 1305 49 564 105 1205 125
1425 19 220 48 552 64 739 17 186 32 341 35 344 8 7 1410 -68 1417 -76 4 -4
63 -133 132 -287 69 -154 243 -543 387 -865 145 -322 369 -823 500 -1115 547
-1221 603 -1346 611 -1343 4 2 53 62 109 133 182 234 222 284 606 775 210 267
548 699 753 960 l372 475 45 3 c25 2 188 -6 362 -17 174 -12 335 -22 357 -24
l40 -2 12 180 c6 99 10 181 8 183 -2 2 -196 17 -432 32 -235 16 -456 31 -490
34 l-61 5 -143 -182 c-78 -100 -199 -254 -269 -342 -69 -88 -198 -252 -286
-365 -88 -113 -326 -416 -529 -675 -202 -258 -369 -471 -370 -472 -1 -3 -124
271 -989 2201 -261 582 -479 1062 -484 1065 -6 3 -374 26 -819 49 -444 24
-808 44 -809 45 -3 4 83 968 87 971 2 2 62 9 133 15 382 33 711 163 1012 397
84 65 304 289 304 309 0 6 -24 31 -52 56 -49 42 -818 677 -967 798 -36 30 -57
52 -46 49 11 -3 115 -45 230 -93 116 -49 401 -168 635 -266 l425 -177 18 41
c124 280 174 643 132 961 -103 786 -680 1406 -1464 1573 -116 25 -145 27 -356
28 -148 0 -255 -5 -300 -13 -529 -98 -956 -372 -1240 -797 -321 -479 -400
-1066 -216 -1614 197 -589 680 -1041 1277 -1196 54 -14 99 -27 101 -29 2 -2
-14 -206 -37 -455 -22 -248 -40 -466 -40 -483 0 -18 -4 -38 -8 -45 -5 -8 -163
-3 -632 23 -344 18 -688 36 -765 39 l-140 6 -457 -548 c-251 -301 -590 -708
-754 -903 -163 -195 -394 -472 -513 -614 l-216 -259 -3 6144 c-2 4624 0 6166
9 6234 46 358 241 713 512 933 233 189 483 296 782 335 17 2 3275 5 7242 6
5064 1 7235 -2 7290 -10z m-12995 -11733 c329 -17 600 -35 603 -38 3 -3 -8
-158 -24 -344 -17 -187 -53 -598 -81 -914 -53 -609 -105 -1202 -194 -2215 -30
-341 -78 -885 -106 -1210 -28 -324 -53 -605 -56 -623 l-5 -32 -773 0 c-461 0
-816 4 -877 10 -363 37 -669 186 -924 452 -189 196 -303 407 -373 688 l-26
105 -3 848 c-4 834 -4 848 15 838 17 -9 47 22 260 277 441 528 615 736 767
917 83 99 279 333 435 520 156 187 362 433 458 548 l173 207 67 0 c37 -1 336
-16 664 -34z"/>
<path d="M6930 19614 c-36 -2 -146 -8 -245 -14 -1085 -64 -1705 -331 -2026
-870 -76 -129 -150 -344 -179 -520 -5 -36 -15 -129 -20 -208 -41 -597 188
-1064 685 -1397 391 -262 953 -435 1610 -495 79 -8 520 -12 1271 -13 1076 -2
1152 -3 1177 -19 41 -27 52 -84 39 -194 -22 -175 -95 -390 -331 -972 -107
-264 -205 -536 -199 -554 2 -5 51 -31 110 -58 l107 -49 67 97 c214 309 793
1042 1273 1612 l114 135 101 11 c338 38 657 151 911 323 374 251 593 611 672
1101 26 163 23 494 -5 625 -28 131 -54 210 -106 321 -218 462 -707 780 -1477
958 -348 81 -719 129 -1294 167 -155 10 -2086 21 -2255 13z m1795 -244 c532
-15 839 -37 1195 -86 835 -114 1395 -348 1678 -701 123 -153 194 -314 228
-513 25 -150 15 -428 -21 -599 -91 -435 -327 -741 -722 -939 -214 -108 -548
-192 -763 -192 l-55 0 -230 -277 c-317 -381 -316 -380 -535 -653 -107 -133
-205 -254 -218 -269 l-22 -26 21 55 c12 30 37 96 56 145 54 142 119 361 138
467 25 139 18 284 -16 358 -33 71 -70 114 -126 147 -99 58 -54 56 -1333 58
-851 1 -1204 5 -1280 14 -1134 132 -1817 537 -1979 1174 -82 317 -38 738 105
1022 243 480 779 719 1785 795 363 28 1460 38 2094 20z"/>
<path d="M14588 17970 c-604 -29 -1048 -129 -1417 -321 -160 -82 -287 -175
-411 -299 -323 -323 -480 -748 -480 -1300 0 -610 204 -1107 589 -1437 320
-274 719 -430 1243 -488 55 -6 60 -9 119 -73 118 -128 303 -385 473 -657 49
-77 90 -142 91 -144 2 -1 52 13 112 33 l108 36 0 272 c0 234 3 282 18 337 21
75 51 136 80 169 l20 22 469 0 c487 0 656 7 918 40 710 88 1305 304 1704 617
105 83 262 246 333 346 122 173 216 395 260 612 25 128 25 489 0 625 -174 919
-1092 1458 -2702 1585 -416 33 -1115 44 -1527 25z m1382 -259 c1326 -101 2114
-419 2454 -992 208 -349 229 -870 52 -1245 -276 -583 -959 -942 -2056 -1080
-108 -14 -257 -18 -745 -23 -684 -7 -632 -1 -721 -83 -91 -83 -150 -220 -178
-407 -8 -57 -17 -105 -19 -107 -2 -3 -21 22 -42 53 -126 190 -321 426 -411
497 l-55 43 -115 7 c-294 16 -659 128 -899 276 -391 239 -617 598 -690 1095
-19 131 -22 437 -5 570 53 424 225 746 515 969 104 80 142 104 256 162 301
151 698 242 1199 274 181 11 1278 4 1460 -9z"/>
</g>
</svg>
